<?xml version="1.0" encoding="iso-8859-1"?>
<!-- Generator: Adobe Illustrator 19.0.0, SVG Export Plug-In . SVG Version: 6.00 Build 0)  -->
<svg version="1.1" id="Capa_1" xmlns="http://www.w3.org/2000/svg" xmlns:xlink="http://www.w3.org/1999/xlink" x="0px" y="0px"
	 viewBox="0 0 512 512" style="enable-background:new 0 0 512 512;" xml:space="preserve">
<g>
	<g>
		<path d="M392.963,199.597c24.96-20.702,40.886-51.937,40.886-86.823C433.848,50.592,383.258,0.002,321.075,0.002
			s-112.772,50.59-112.772,112.772c0,8.128,0.872,16.055,2.514,23.7c-6.422-1.14-13.028-1.737-19.772-1.737
			c-62.183,0-112.772,50.59-112.772,112.772c0,34.883,15.923,66.115,40.879,86.818C49.339,362.789,0,431.394,0,511.317h40.009
			c0-83.282,67.754-151.035,151.035-151.035c62.183,0,112.772-50.59,112.772-112.772c0-8.128-0.872-16.056-2.514-23.701
			c6.422,1.14,13.028,1.737,19.772,1.737c49.078,0,92.746,23.544,120.35,59.916l27.111-30.186
			C448.497,230.958,422.569,211.672,392.963,199.597z M191.045,320.272c-40.121,0-72.763-32.641-72.763-72.763
			c0-40.122,32.642-72.763,72.763-72.763s72.763,32.642,72.763,72.763S231.166,320.272,191.045,320.272z M321.075,185.536
			c-40.121,0-72.763-32.641-72.763-72.763c0-40.122,32.642-72.762,72.763-72.762s72.763,32.641,72.763,72.763
			C393.838,152.897,361.197,185.536,321.075,185.536z"/>
	</g>
</g>
<g>
	<g>
		<polygon points="482.233,299.903 343.271,454.623 264.851,379.974 237.267,408.954 345.519,511.998 512,326.638 		"/>
	</g>
</g>
<g>
</g>
<g>
</g>
<g>
</g>
<g>
</g>
<g>
</g>
<g>
</g>
<g>
</g>
<g>
</g>
<g>
</g>
<g>
</g>
<g>
</g>
<g>
</g>
<g>
</g>
<g>
</g>
<g>
</g>
</svg>
