<?xml version="1.0" encoding="iso-8859-1"?>
<!-- Generator: Adobe Illustrator 19.0.0, SVG Export Plug-In . SVG Version: 6.00 Build 0)  -->
<svg version="1.1" id="Capa_1" xmlns="http://www.w3.org/2000/svg" xmlns:xlink="http://www.w3.org/1999/xlink" x="0px" y="0px"
	 viewBox="0 0 472 472" style="enable-background:new 0 0 472 472;" xml:space="preserve">
<g>
	<path style="fill:#FF6243;" d="M260,56c-4.418,0-8-3.582-8-8V8c0-4.418,3.582-8,8-8s8,3.582,8,8v40C268,52.418,264.418,56,260,56z"
		/>
	<path style="fill:#FF6243;" d="M252,208v-72h16v72H252z"/>
</g>
<g>
	<path style="fill:#3D9AE2;" d="M468,472V200L296.52,300.52L468,472z"/>
	<path style="fill:#3D9AE2;" d="M4,200v272l171.48-171.48L4,200z"/>
</g>
<path style="fill:#1E81CE;" d="M236,336l-60.52-35.48L4,472h464L296.52,300.52L236,336z"/>
<path style="fill:#78B9EB;" d="M258.992,200h-61.864H4l171.48,100.52L236,336l60.52-35.48L468,200H258.992z"/>
<path style="fill:#FFD422;" d="M236,80h48v32h-48V80z"/>
<g>
	<path style="fill:#FF6243;" d="M284,64c0-8.837-7.163-16-16-16h-16c-8.837,0-16,7.163-16,16v16h48V64z"/>
	<path style="fill:#FF6243;" d="M284,128v-16h-48v16c0,8.837,7.163,16,16,16h16C276.837,144,284,136.837,284,128z"/>
	<path style="fill:#FF6243;" d="M228,232c-22.08-0.026-39.974-17.92-40-40v-48c0.001-4.418,3.583-7.999,8.002-7.998
		c2.121,0,4.155,0.843,5.654,2.342l24,24c3.069,3.178,2.981,8.243-0.197,11.312c-3.1,2.994-8.015,2.994-11.115,0L204,163.312V192
		c0,13.255,10.745,24,24,24c4.418,0,8,3.582,8,8S232.418,232,228,232L228,232z"/>
</g>
<g>
</g>
<g>
</g>
<g>
</g>
<g>
</g>
<g>
</g>
<g>
</g>
<g>
</g>
<g>
</g>
<g>
</g>
<g>
</g>
<g>
</g>
<g>
</g>
<g>
</g>
<g>
</g>
<g>
</g>
</svg>
