<svg width="32" height="32" xmlns="http://www.w3.org/2000/svg">
 <title/>

 <g>
  <title>background</title>
  <rect fill="none" id="canvas_background" height="402" width="582" y="-1" x="-1"/>
 </g>
 <g>
  <title>Layer 1</title>
  <path id="svg_1" d="m25,30a1,1 0 0 1 -0.66,-0.25l-8.34,-7.41l-8.34,7.41a1,1 0 0 1 -1.66,-0.75l0,-26a1,1 0 0 1 1,-1l18,0a1,1 0 0 1 1,1l0,26a1,1 0 0 1 -0.59,0.91a1,1 0 0 1 -0.41,0.09zm-9,-10a1,1 0 0 1 0.66,0.25l7.34,6.52l0,-22.77l-16,0l0,22.77l7.34,-6.52a1,1 0 0 1 0.66,-0.25z"/>
  <path d="m11.165672,11.457081c0,0.098159 0.04908,0.147239 0.098159,0.294477c0.098159,0.294477 0.225615,0.539866 0.539874,0.638034c0.331259,0.103477 0.910625,0.18423 2.208577,-0.147239c0.962881,-0.245899 1.545818,-0.633507 1.570543,-0.834352c0.047973,-0.389693 -0.381972,-0.665944 -0.736192,-0.785272c-0.383542,-0.129206 -1.00032,-0.217982 -1.374226,-0.098159c-0.402057,0.128845 -0.686743,0.678061 -0.736193,1.079749c-0.023987,0.194847 0.098159,0.245397 0.392636,0.245397c0.294477,0 0.875971,-0.041613 1.226987,-0.343556c0.343039,-0.295081 0.487454,-0.830398 0.196318,-1.079748c-0.217357,-0.186159 -0.83206,-0.26989 -1.226987,-0.294477c-0.293907,-0.018298 -0.598651,0.192323 -0.736192,0.539875c-0.211388,0.534154 -0.519056,1.134144 -0.294477,1.570543c0.19319,0.375404 0.916621,0.374436 1.9141,0.04908c0.980972,-0.319973 1.3541,-0.740378 1.276067,-1.177908c-0.077076,-0.432161 -0.874488,-0.636083 -2.306736,-0.88343c-1.757801,-0.30357 -2.68763,-0.408707 -2.993848,-0.245398c-0.58262,0.310718 -0.934295,1.158203 -0.539875,2.110417c0.106247,0.256503 0.549025,0.348806 1.128829,0.245398c0.978345,-0.174489 2.207134,-1.078306 3.042928,-1.9141c0.417896,-0.417896 0.561823,-0.939356 -0.04908,-1.276067c-0.271848,-0.149834 -0.424203,-0.155345 -0.638033,0c-0.310123,0.225301 -0.441236,0.57866 -0.490795,0.93251c-0.013615,0.09721 0.105768,0.158793 0.343556,0.098159c0.595896,-0.15195 1.220386,-0.700052 1.423306,-0.981589c0.128338,-0.178061 -0.04908,-0.392636 -0.638034,-0.392636c-1.079748,0 -1.842749,-0.140792 -2.208576,0.147239c-0.36379,0.286426 -0.490795,0.687113 -0.539875,0.785272l0,0.049079l0.147239,0.04908" id="svg_2" stroke-width="1.5" stroke="#000" fill="none"/>
  <path d="m12.539898,10.868127c0,-0.196318 0.151973,-0.359966 0.343556,-0.736193c0.352139,-0.691518 0.245398,-1.128828 0.245398,-1.619622c0,-0.441715 -0.197147,-0.682372 -0.490795,-0.736193c-0.246157,-0.045117 -0.392635,-0.049079 -0.490795,-0.049079l-0.049079,0l0,0.049079l0,0.098159" id="svg_3" stroke-width="1.5" stroke="#000" fill="none"/>
  <path d="m23.190145,8.365073c-0.04908,0 -0.103989,0.253508 0.09816,0.392636c0.294329,0.202573 0.577368,0.158825 0.687113,0.049079c0.21949,-0.21949 0.098158,-0.785272 0.098158,-1.128828c0,-0.294477 0,-0.490795 0,-0.687113c0,-0.147238 0,-0.245398 0,-0.392636c0,-0.147238 0.019287,-0.40126 -0.098158,-0.638033c-0.127169,-0.256374 -0.293575,-0.574819 -0.343557,-0.834351c-0.037125,-0.192776 -0.034857,-0.345662 -0.04908,-0.392636c-0.051279,-0.169365 -0.192272,-0.264386 -0.245396,-0.392636c-0.037563,-0.090687 0.049078,-0.147239 0.098158,-0.147239c0.04908,0 0.196318,0.04908 0.196318,0c0,-0.196318 -0.587994,0.056344 -0.93251,0.098159c-0.489649,0.05943 -1.032347,0.135289 -1.423304,0.196318c-0.789396,0.123226 -0.935045,0.115792 -1.128828,0.147239c-0.1532,0.024861 -0.245398,0.049079 -0.343557,0.049079c-0.09816,0 -0.196318,0 -0.245398,0c-0.04908,0 -0.147238,0 -0.343555,0c-0.343557,0 -0.588955,0 -1.325148,0c-0.196318,0 -0.622986,-0.120677 -0.687111,-0.147239c-0.090687,-0.037565 -0.19632,0 -0.294477,0c-0.196318,0 -0.343796,-0.044243 -0.392637,-0.049079c-0.249037,-0.02466 -0.490793,-0.049079 -0.932509,-0.049079c-0.294477,0 -0.536829,-0.073535 -0.834351,-0.098159c-0.19565,-0.016192 -0.539875,-0.098159 -0.785272,-0.098159c-0.441716,0 -0.834352,0 -1.276067,0c-0.539875,0 -0.98374,0.043526 -1.423306,0c-0.24904,-0.02466 -0.490794,-0.04908 -0.785272,-0.04908c-0.245398,0 -0.32851,-0.022518 -0.392635,-0.049079c-0.090688,-0.037564 -0.196319,0 -0.392636,0c-0.196318,0 -0.32851,-0.022518 -0.392636,-0.049079c-0.090687,-0.037563 -0.147238,0 -0.294477,0c-0.049079,0 -0.098159,0 -0.196318,0c-0.098159,0 -0.147239,0 -0.245398,0c-0.098159,0 -0.196318,0.098159 -0.245398,0.147239c-0.049079,0.049079 -0.147239,0.245397 -0.147239,0.343556c0,0.147239 -0.046879,0.321429 -0.098159,0.490795c-0.014222,0.046974 0,0.098159 0,0.147238c0,0.049079 0,0.098159 0.04908,0.098159c0.196318,0 0.441715,0 0.834352,0c0.539874,0 1.079748,0 1.374225,0c0.490795,0 1.766862,0 2.552134,0c0.834352,0 1.521464,0 2.110417,0c0.392636,0 0.736193,0 1.128828,0c0.392635,0 0.785273,0 1.07975,0c0.196318,0 0.736191,0 1.128828,0c0.441715,0 0.918373,0.048178 1.177906,0.098159c0.337358,0.064969 0.643349,-0.055687 0.93251,0c0.259533,0.049981 0.441715,0.098159 0.588955,0.098159c0.245398,0 0.441715,0.049079 0.588953,0.049079c0.09816,0 0.392635,0 0.687113,0c0.196318,0 0.245398,0 0.343557,0c0.245396,0 0.441715,0 0.490793,0c0.09816,0 0.218838,0.034034 0.245398,0.098159c0.018782,0.045344 -0.007498,0.198346 0.04908,0.392636c0.043394,0.149014 0.04908,0.343556 0.04908,0.539874c0,0.294477 0,0.539875 0,0.736192c0,0.098159 0,0.294477 0,0.392636c0,0.147238 0,0.294477 0,0.490795c0,0.245398 -0.030853,0.492184 0,0.834352c0.049278,0.546508 0.098158,0.834352 0.147238,0.834352c0.147238,0 0,-0.441715 0,-0.785272c0,-0.343556 -0.07958,-0.842229 -0.147238,-1.128829c-0.050428,-0.213619 -0.041815,-0.354764 -0.09816,-0.490795c-0.053123,-0.128251 -0.098158,-0.196318 -0.098158,-0.245398c0,-0.049079 0,-0.147239 0,-0.245398c0,-0.049079 0.007227,-0.106654 -0.04908,-0.147238c-0.089031,-0.064169 -0.193085,-0.15432 -0.294477,-0.196318c-0.143389,-0.059393 -0.196318,-0.049079 -0.343555,-0.049079c-0.09816,0 -0.147976,0.011993 -0.245398,0c-0.200844,-0.024725 -0.389591,-0.073535 -0.687113,-0.098159c-0.391298,-0.032385 -0.736193,0 -1.079748,0c-0.343557,0 -0.736193,0 -1.03067,0c-0.245398,0 -0.392635,0 -0.539873,0c-0.343557,0 -0.638035,0 -0.834352,0c-0.147238,0 -0.493963,0.039309 -0.736193,0c-0.306396,-0.049721 -0.530334,-0.120167 -0.736191,-0.196318c-0.189793,-0.070209 -0.392637,-0.049079 -0.687113,-0.049079c-0.294477,0 -0.635269,-0.058323 -0.785273,-0.098159c-0.241874,-0.064233 -0.492289,-0.039566 -0.834351,-0.098159c-0.49333,-0.084504 -0.884048,-0.080763 -1.128828,-0.098159c-0.346171,-0.024601 -0.43719,-0.073434 -0.638034,-0.098159c-0.243559,-0.029984 -0.539874,0 -0.736192,0c-0.245398,0 -0.539875,0 -0.785273,0c-0.245397,0 -0.638033,0 -0.834351,0c-0.147239,0 -0.294477,0 -0.490795,0c-0.147239,0 -0.343556,0 -0.441715,0c-0.098159,0 -0.207525,-0.056346 -0.343556,0c-0.064125,0.026562 -0.199557,0.141234 -0.294477,0.196318c-0.153053,0.08882 -0.193087,0.105241 -0.294477,0.147238c-0.143388,0.059393 -0.181272,0.169756 -0.245398,0.196318c-0.045343,0.018782 -0.094114,0.018988 -0.147238,0.147238c-0.037564,0.090687 -0.057575,0.14001 -0.098159,0.196318c-0.064169,0.08903 -0.072945,0.138588 -0.098159,0.245398c-0.022552,0.095533 0,0.196318 0,0.294477c0,0.245398 0,0.392636 0,0.490795c0,0.147239 -0.069409,0.323228 0,0.392636c0.069409,0.069408 0.297102,0.022552 0.392636,0c0.10681,-0.025214 0.206627,-0.090835 0.343556,-0.294477c0.159685,-0.237486 0.305408,-0.379089 0.490795,-0.539874c0.10487,-0.090953 0.098159,-0.196318 0.294477,-0.294477c0.196318,-0.098159 0.588954,-0.196318 1.079749,-0.441715c0.098159,-0.049079 0.141277,-0.073298 0.294477,-0.098159c0.145337,-0.023585 -0.000403,-0.017792 -0.392636,0c-0.541544,0.024565 -0.638033,0.02875 -0.638033,0.098159c0,0.069409 0.539874,0.147238 0.834352,0.147238c1.276066,0 2.355815,0 3.435564,0c1.128828,0 2.503054,0 5.59506,0c1.423306,0 2.061338,0.04908 2.061338,0c0,-0.490795 -0.834867,-0.011122 -2.012259,0.04908c-1.620478,0.082858 -3.989974,0.248873 -5.889538,0.588953c-0.644554,0.115395 -0.694374,0.165815 -0.588954,0.196318c0.473806,0.137096 1.472384,0.049079 3.190166,0.049079c2.159498,0 4.417154,0 6.72389,0c1.276066,0 1.374226,0 1.276066,0c-0.343555,0 -0.690386,-0.075965 -1.570543,0c-1.141529,0.098524 -2.343973,0.401258 -3.141087,0.785272c-0.417131,0.200955 -0.441715,0.441715 -0.441715,0.539874c0,0.147239 0.037159,0.244755 0.343555,0.294477c0.339121,0.055032 0.868652,0.060408 1.423306,-0.294477c0.264713,-0.169373 0.451628,-0.42506 0.343557,-0.588954c-0.205763,-0.312046 -0.925341,-0.318862 -2.061338,-0.392636c-0.93055,-0.060432 -1.859657,-0.082663 -2.453976,0.736192c-0.401537,0.55324 -0.539747,1.671728 -0.245398,2.453974c0.197077,0.523742 0.64076,0.630904 1.717783,0.539875c1.151091,-0.097289 2.196568,-1.037148 2.306736,-1.226988c0.177641,-0.306106 0.447161,-0.670774 0.245398,-1.276066c-0.155203,-0.46561 -1.112768,-0.88731 -2.355816,-1.030669c-1.512232,-0.174404 -3.981141,0.622947 -4.564392,1.570543c-0.554157,0.900328 -0.626281,2.190706 -0.245398,2.453974c0.205866,0.142295 3.152906,-0.218761 3.435564,-1.128828c0.072788,-0.234354 -0.137867,-0.754584 -0.638033,-1.128828c-0.492387,-0.368423 -1.20472,-0.367123 -1.374226,-0.147239c-0.416284,0.540005 -0.652651,1.640467 -0.294477,2.453975c0.210231,0.477489 1.157849,0.830905 2.110417,0.588954c1.31913,-0.335057 2.401825,-1.279969 2.552134,-2.012259c0.019737,-0.096154 -0.092999,-0.366001 -0.687113,-0.490794c-1.99778,-0.419633 -3.16005,-0.68707 -3.975438,-0.343556c-0.736284,0.310188 -1.028772,1.367646 -1.128829,2.257656c-0.093373,0.830562 0.199363,1.558025 1.03067,1.766861c1.193813,0.299902 2.523891,0.060536 3.337404,-0.392635c0.334871,-0.186543 0.294477,-0.588954 0.294477,-0.736193l0,-0.049079l0,-0.04908" id="svg_6" stroke-width="1.5" stroke="#000" fill="none"/>
  <path d="m18.282198,11.653399c0,-0.294477 -0.346092,-0.606586 -0.539875,-0.638033c-0.306398,-0.049722 -0.890503,-0.206568 -1.717781,-0.098159c-0.75546,0.098998 -1.379663,0.976389 -1.325147,1.619622c0.026214,0.309298 0.639036,0.564164 0.93251,0.539875c0.892564,-0.073871 2.334371,-1.005413 2.601213,-1.325147c0.497229,-0.595786 0.613455,-1.12679 0.638033,-1.570543c0.008142,-0.147014 0.044275,-0.334939 -0.04908,-0.392636c-0.208748,-0.129013 -0.539873,0.04908 -0.93251,0.294477l-0.098158,0.196318l-0.04908,0l0.09816,-0.049079" id="svg_7" stroke-width="1.5" stroke="#000" fill="none"/>
  <path d="m17.840483,9.003106c-0.09816,0 -0.44425,-0.031446 -0.638033,0c-0.1532,0.024861 -0.27825,0.361365 -0.14724,0.834352c0.152782,0.551593 0.638033,0.638033 0.93251,0.638033c0.441715,0 0.943743,-0.133967 1.177908,-0.343556c0.206873,-0.185161 0.397688,-0.520114 0.294477,-0.687112c-0.17309,-0.280065 -0.620153,-0.268974 -1.07975,-0.343556c-0.193783,-0.031446 -0.294476,0 -0.294476,-0.196319l0,-0.098159l0,-0.147239l0,-0.049079" id="svg_8" stroke-width="1.5" stroke="#000" fill="none"/>
  <path d="m17.889561,8.266914c0,0.147239 0,0.196318 0,0.245398c0,0.049079 0.026953,0.145038 0.19632,0.196318c0.093946,0.028444 0.343555,0 0.392635,0c0.04908,0 -0.441715,0 -0.93251,0c-1.03067,0 -1.965509,0.175556 -2.453974,0.588954c-0.50402,0.426562 -0.906771,0.912539 -0.98159,1.325146c-0.017514,0.096583 0.261318,-0.033864 0.588954,-0.392635c0.25849,-0.283055 0.460288,-0.647543 0.392636,-0.883431c-0.127645,-0.445072 -0.729492,-0.585809 -2.257657,-0.785272c-1.467282,-0.191516 -2.450271,-0.36146 -2.699371,0c-0.279892,0.406139 -0.252241,0.964716 0.04908,1.423306c0.097173,0.14789 0.303667,0.177092 0.638033,0.098159c0.640856,-0.151286 1.25547,-0.839582 1.423306,-1.226987c0.099484,-0.229633 0.144829,-0.650848 -0.343556,-0.834352c-0.413491,-0.155364 -0.779917,-0.058976 -1.128828,0.245398c-0.288858,0.251987 -0.465055,0.470824 -0.539875,0.88343c-0.035028,0.193168 0.002625,0.26795 0.098159,0.245398c0.213619,-0.050428 0.634858,-0.338343 0.883431,-0.88343c0.167926,-0.368238 0.230824,-0.812445 -0.147239,-1.079749c-0.369469,-0.261228 -0.798468,-0.241516 -1.570543,-0.098159c-0.672111,0.124796 -1.302399,0.663888 -1.079749,1.423306c0.107844,0.36784 0.392636,0.441715 0.785272,0.441715c0.245398,0 0.576332,-0.065991 0.834352,-0.245398c0.234963,-0.163375 0.294477,-0.245398 0.294477,-0.441715c0,-0.04908 -0.0573,-0.161144 -0.294477,-0.098159c-0.382436,0.101562 -0.939297,0.560582 -1.177908,1.226987c-0.166272,0.464372 -0.299135,1.004847 0,1.570543c0.146904,0.277812 0.491965,0.224654 0.834352,0.196318c0.297522,-0.024623 0.539504,-0.383584 0.588954,-0.785272c0.05397,-0.438406 0.255759,-0.92215 -0.098159,-1.276067c-0.176959,-0.176958 -0.613228,-0.247409 -1.030669,0.147239c-0.271613,0.256782 -0.373485,0.975852 -0.490795,1.668702c-0.066056,0.39014 -0.140213,0.807824 0.147239,1.079749c0.398623,0.377092 0.881515,0.453893 1.472384,0.441715c0.395607,-0.008154 0.37353,-0.3461 0.441715,-0.785272c0.038394,-0.247294 0.102147,-0.900367 0,-1.128828c-0.200328,-0.44805 -0.93022,-0.760685 -1.325146,-0.785272c-0.048985,-0.00305 -0.184107,-0.052678 -0.343556,0.098159c-0.287452,0.271925 -0.402004,0.684889 -0.490795,1.079748c-0.054904,0.244161 -0.022826,0.377384 0.049079,0.294477c0.20338,-0.234497 0.129943,-0.540667 0.09816,-1.177908c-0.02457,-0.492631 -0.190849,-0.696639 -0.441715,-0.834351c-0.28861,-0.158431 -0.384019,-0.191514 -0.441716,-0.09816c-0.077408,0.125249 -0.00596,0.220537 0.147238,0.245398c0.290675,0.04717 0.496809,-0.059209 0.785272,0c0.366145,0.075154 0.755103,0.430511 0.98159,0.834352c0.107365,0.191438 0.143979,0.455407 0.245397,0.736192c0.231627,0.641285 0.926112,1.061228 1.325147,1.128829c0.534485,0.090549 0.949501,0.063535 1.030669,-0.04908c0.064169,-0.089029 0.109262,-0.433628 -0.147239,-0.539874c-0.090687,-0.037563 -0.693192,-0.189362 -1.374226,-0.098159c-0.554641,0.074276 -0.785031,0.581669 -0.834352,1.079748c-0.019345,0.195362 0.430929,0.08414 1.128828,-0.441715c0.870336,-0.655784 0.493991,-1.491829 -0.245397,-0.736193c-0.586551,0.59944 -0.699434,1.577229 -0.588954,2.306736c0.102361,0.675892 1.210649,1.428826 1.619623,1.521464c1.105092,0.250319 2.606352,0.280622 3.877278,-0.196319c1.727273,-0.648195 1.999084,-1.362355 2.012259,-1.766861c0.017864,-0.548434 -0.922647,-0.995299 -1.96318,-1.030669c-1.32801,-0.045142 -2.284057,0.665495 -2.601213,1.079749c-0.645441,0.843043 -1.028263,1.759048 -1.128828,2.503054c-0.092272,0.682654 0.187266,0.932139 0.588954,0.981589c0.438406,0.05397 0.998536,-0.236336 1.423305,-0.785273c0.592396,-0.765564 0.767314,-1.167561 0.539875,-1.81594c-0.208046,-0.593094 -1.42147,-1.104259 -1.914101,-1.128828c-0.196074,-0.009779 -0.561869,0.179047 -0.981589,0.736192c-0.466934,0.619817 -1.068577,1.378621 -0.785272,2.012259c0.072228,0.161546 0.550635,0.195065 0.981589,0.098159c1.0067,-0.226373 1.830296,-1.035633 2.257656,-1.717782c0.116529,-0.186002 0.132176,-0.604478 -0.196318,-0.736193c-0.786384,-0.315312 -2.120939,-0.508131 -3.288325,-0.343556c-0.9221,0.129995 -1.617598,1.018929 -1.815941,1.9141c-0.193744,0.87441 -0.181938,1.552539 0.196318,1.668702c0.611722,0.18786 1.373633,0.011368 2.012259,-0.490793c0.741114,-0.582749 0.883287,-1.417679 0.93251,-2.061339c0.022454,-0.293619 -0.147238,-0.392635 -0.392635,-0.392635c-0.392636,0 -0.791286,0.067997 -1.030669,0.490794c-0.398809,0.704374 -0.273919,1.100307 -0.196318,1.177908c0.077601,0.077601 0.264076,0.142989 0.490794,0.04908c0.320627,-0.132808 0.444665,-0.587655 0.638034,-1.030669c0.149526,-0.342567 -0.023306,-0.914804 -0.196319,-1.030669c-1.060269,-0.710052 -1.86502,-0.588954 -1.963179,-0.588954c-0.147239,0 -0.268245,0.237451 -0.343556,0.490795c-0.07131,0.239882 -0.098159,0.490794 -0.098159,0.687113c0,0.049079 0.171658,-0.241755 0.196318,-0.490795c0.024181,-0.244204 -0.068067,-0.486751 -0.196318,-0.539874c-0.045344,-0.018782 -0.196023,0.286404 -0.245398,0.736192c-0.048199,0.439077 0.003562,0.566076 0.098159,0.539874c0.275796,-0.07639 0.43956,-0.47627 0.539874,-0.88343c0.094658,-0.384202 0.146554,-0.752792 0.04908,-1.030669c-0.104023,-0.296547 -0.289043,-0.292609 -0.392636,0c-0.139946,0.395294 -0.245398,0.88343 -0.245398,1.276067c0,0.392636 0.024456,0.929465 0.04908,1.226987c0.008097,0.097824 0.031313,-0.14835 0,-0.588954c-0.024602,-0.346171 -0.129882,-0.885238 -0.392636,-1.325146c-0.071184,-0.119177 -0.098159,0.147239 -0.098159,0.490795c0,0.441715 0,1.030669 0,1.668702c0,0.343556 0,0.294477 0,-0.098159c0,-0.441715 0,-0.93251 0,-1.423306c0,-0.098159 0,-0.049079 0,0.490795c0,0.687113 -0.124064,1.48166 0,2.306736c0.099262,0.660131 0.092199,0.908291 0.245398,0.88343c0.048446,-0.007862 0,-0.245398 0,-0.687113c0,-0.09816 0,0.04908 0,0.392635c0,0.441715 0.026894,0.98226 0,1.521465c-0.02457,0.492628 -0.14724,0.88343 -0.04908,0.88343c0.294477,0 0.098159,-0.687113 0.098159,-1.276068c0,-0.588953 0.049078,-0.736191 0,-0.736191c-0.049078,0 0,0.294476 0,0.539873c0,0.343557 0,0.736193 0,1.079748c0,0.245398 0,0.441717 0,0.539875c0,0.196318 0,0.343557 0,0.588955c0,0.245396 0,0.343555 0,0.441715c0,0.147238 0,0.196318 0,0.294476c0,0.14724 0.04908,0.392637 0.04908,0.539875c0,0.196318 0.073298,0.337595 0.098159,0.490795c0.015723,0.096891 0,0.196318 0,0.294476c0,0.04908 0,0.09816 0,0.19632c0,0.147238 0,0.294476 0,0.441715c0,0.098158 0,0.147238 0,0.245398c0,0.098158 0,0.147238 0,0.294476c0,0.04908 -0.024219,0.141279 -0.049079,0.294477c-0.007862,0.048447 -0.023866,0.138588 -0.04908,0.245398c-0.011276,0.047768 0.050624,0.118383 -0.04908,0.294477c-0.034197,0.060398 -0.049079,0.147238 -0.049079,0.196318c0,0.098158 -0.030297,0.150974 -0.04908,0.196318c-0.053123,0.12825 -0.098159,0.147238 -0.098159,0.196318c0,0.09816 -0.037803,0.19763 -0.049079,0.245398c-0.025214,0.10681 -0.04908,0.196318 -0.04908,0.245398c0,0.147238 -0.119926,0.313156 -0.196318,0.588953c-0.052403,0.189194 -0.264714,0.271837 -0.196318,0.392637c0.099703,0.176094 0.4359,-0.1075 0.588953,-0.19632c0.189839,-0.110168 0.301438,-0.184608 0.638034,-0.392635c0.30106,-0.186066 0.747424,-0.428444 0.981589,-0.638033c0.103437,-0.092581 0.098159,-0.147238 0.147239,-0.196318c0.049079,-0.04908 0.098159,-0.09816 0.196318,-0.196318c0.09816,-0.09816 0.248637,-0.288473 0.343556,-0.343557c0.306106,-0.177641 0.640141,-0.388992 0.981589,-0.588953c0.24695,-0.144621 0.539875,-0.294477 0.736193,-0.392637c0.196318,-0.098158 0.304866,-0.182287 0.441715,-0.294476c0.214707,-0.176018 0.291186,-0.299603 0.441715,-0.392635c0.336596,-0.208029 0.504258,-0.324728 0.785272,-0.539875c0.414254,-0.317158 0.490794,-0.441715 0.588954,-0.539875c0.098159,-0.098158 0.196318,-0.196318 0.294477,-0.343555l0.196318,-0.245398l0,-0.09816" id="svg_9" stroke-width="1.5" stroke="#000" fill="none"/>
  <path d="m13.472408,20.92942c-0.294477,0.294477 -0.590579,0.5872 -1.226987,1.177908c-0.738083,0.685081 -1.732819,1.311913 -1.423306,1.521463c0.2299,0.155651 0.900064,-0.865385 2.552134,-2.404894c1.041276,-0.970331 1.374226,-1.374226 1.374226,-1.521463c0,-0.09816 -0.049959,-0.163305 -0.196319,-0.14724c-0.899577,0.098749 -2.159314,0.612703 -3.386484,1.472385c-1.487842,1.042294 -1.865021,1.865021 -1.865021,1.963179c0,0.196318 -0.034705,0.259773 0,0.294477c0.208227,0.208227 0.702774,-0.325764 1.374226,-0.93251c1.056025,-0.95426 2.237668,-1.837214 2.650292,-2.601213c0.288488,-0.534153 0.102684,-0.907784 -0.098159,-0.932508c-0.340982,-0.041975 -0.502519,-0.012806 -0.93251,0.392635c-0.656499,0.619017 -1.549537,1.377268 -2.110417,2.404894c-0.515688,0.944826 -0.597736,1.634283 -0.441715,1.717783c0.173088,0.092634 0.627666,-0.161594 1.030669,-0.441715c0.670731,-0.466213 1.739458,-1.357437 1.963179,-1.668703c0.437239,-0.608335 0.58213,-1.228388 0.539875,-1.865021c-0.049188,-0.741077 -0.374304,-1.472752 -0.98159,-1.815941c-0.635206,-0.358967 -1.987322,-0.536877 -2.699371,-0.343555c-0.529555,0.143774 -1.038844,0.607603 -1.226987,1.030668c-0.290377,0.652952 -0.343556,1.374226 -0.343556,1.865021c0,0.147238 0.153739,0.165468 0.588953,0c0.698757,-0.265667 1.139949,-0.572765 1.717782,-0.98159c0.200328,-0.141735 0.609025,-0.577976 0.736193,-0.834351c0.117446,-0.236773 0.098159,-0.539875 0.098159,-0.687113l0,-0.04908" id="svg_10" stroke-width="1.5" stroke="#000" fill="none"/>
  <path d="m10.969355,17.395699c-0.196318,0.245398 -0.38438,0.418262 -0.539874,0.736193c-0.409131,0.836527 -0.468083,1.922647 -0.392636,2.110416c0.147528,0.367163 0.466986,0.563307 1.030669,0.392637c0.508097,-0.153839 0.86916,-0.571281 1.030669,-0.93251c0.190047,-0.425056 0.303746,-0.937256 0.049079,-1.423306c-0.225492,-0.430367 -0.953219,-0.857262 -1.374225,-0.98159c-0.426237,-0.125874 -0.948028,-0.15062 -1.226988,0.09816c-0.295314,0.263365 -0.539285,1.063602 -0.638033,1.963179c-0.064265,0.585438 0.101352,0.902119 0.441715,0.834352c1.510695,-0.300777 1.956743,-1.085548 2.79753,-2.01226c0.613433,-0.676123 0.897035,-1.431927 0.785273,-2.012259c-0.186783,-0.969884 -1.101264,-1.423645 -1.815942,-1.570543c-0.770692,-0.158412 -1.43378,0.102225 -1.717781,0.539874c-0.382524,0.589474 -0.601201,1.608792 -0.736193,2.552135c-0.090649,0.633465 0.093633,1.055023 0.294477,1.079748c0.535829,0.065964 0.866139,-0.21562 1.521463,-0.785273c0.526452,-0.457628 0.960963,-0.878057 1.030669,-1.325146c0.08351,-0.535631 -0.096668,-1.233733 -0.687113,-1.717782c-0.547399,-0.448759 -0.759831,-0.595881 -0.981589,-0.490794c-0.630355,0.298712 -0.593674,0.817724 -0.736193,1.374225c-0.160153,0.625358 -0.233474,1.291821 -0.098159,1.865022c0.075643,0.320427 0.346182,0.415188 0.441715,0.392635c0.320429,-0.075644 0.731485,-0.503307 1.128828,-1.03067c0.278625,-0.369799 0.331876,-1.08672 0.245398,-1.619622c-0.049722,-0.306398 -0.45333,-0.488032 -0.539874,-0.441715c-0.312039,0.166999 -0.30422,0.695518 -0.490795,1.472384c-0.203094,0.845644 -0.55173,1.61688 -0.343556,2.061338c0.162589,0.347134 0.839562,0.354086 1.177908,0.294477c0.565748,-0.099672 1.19823,-0.437084 1.374226,-0.736193c0.181199,-0.307951 0.098159,-0.638033 0.098159,-0.88343c0,-0.196318 -0.155663,-0.302288 -0.343556,-0.245398c-0.508097,0.153839 -1.199813,0.937891 -1.570543,1.619623c-0.431067,0.792686 -0.632998,1.536575 -0.539875,1.815941c0.077601,0.232805 0.445655,0.279226 0.588954,0.245398c0.320429,-0.075644 0.462324,-0.284702 0.687113,-0.785273c0.108273,-0.241106 0.090603,-0.488276 -0.049079,-0.441715c-0.232804,0.0776 -0.560472,0.572945 -0.785272,0.88343c-0.271535,0.375036 -0.367911,0.731667 -0.392636,0.93251c-0.01799,0.146135 0,0.245398 0,0.196318c0,-0.04908 0,-0.147238 -0.04908,-0.147238c-0.147238,0 -0.330362,0.063025 -0.588953,0.294476c-0.234166,0.209589 -0.316995,0.279432 -0.343556,0.343557c-0.018782,0.045343 -0.089542,0.053885 -0.147239,0.147238c-0.025803,0.04175 -0.033357,0.099426 -0.04908,0.196318c-0.02486,0.1532 -0.049079,0.245398 -0.049079,0.343557c0,0.09816 -0.196319,0.196318 -0.147239,0.245398c0.196318,0.196318 0.916532,-0.851007 1.325146,-1.226988c0.615046,-0.565924 1.5068,-1.335087 2.404895,-2.159496c0.869249,-0.79793 1.619623,-1.570543 1.766862,-1.668703c0.147239,-0.098158 0.343556,-0.098158 0.736192,-0.098158c0.490795,0 0.939038,0.021128 1.128828,-0.04908c0.102928,-0.038076 0.343557,-0.147238 0.93251,-0.441715c0.294477,-0.14724 0.709631,-0.42667 0.736193,-0.490795c0.018782,-0.045343 -0.04908,-0.14724 -0.441715,-0.14724c-0.588955,0 -0.890512,0.144007 -0.93251,0.245398c-0.059395,0.143391 -0.083785,0.259773 -0.04908,0.294477c0.069409,0.06941 0.371742,-0.006527 0.834351,-0.343555c0.421682,-0.307213 1.357269,-1.040088 1.668703,-1.325147c0.33378,-0.305513 0.303127,-0.416501 0.196318,-0.441715c-0.382132,-0.090208 -1.090912,0.226894 -1.914099,0.736192c-0.995589,0.615961 -1.654481,1.175802 -1.668703,1.128828c-0.051279,-0.169365 0.47474,-0.368269 1.521463,-1.030669c1.450953,-0.918208 2.729115,-1.437882 3.288326,-2.159497c0.161896,-0.208912 0.167566,-0.323227 0.098158,-0.392635c-0.069408,-0.069408 -0.479006,0.114568 -0.88343,0.392635c-1.671888,1.149531 -3.292401,1.956529 -4.417152,2.650293c-0.394078,0.243074 -0.243342,0.248056 0.392635,-0.245398c1.132507,-0.87871 2.439737,-1.767621 3.680962,-2.699372c0.809177,-0.607427 0.973726,-0.884065 0.981588,-0.93251c0.02486,-0.153198 0.14724,-0.294477 0.490795,-0.638033c0.14724,-0.147239 0.388727,-0.253641 0.588955,-0.343556c0.241106,-0.108273 0.384718,-0.302845 0.539873,-0.441715c0.234165,-0.209589 0.329525,-0.353946 0.441715,-0.490795c0.088009,-0.107354 0.161816,-0.226444 0.294477,-0.343556c0.082273,-0.072631 0.196318,-0.098159 0.196318,-0.147239c0,-0.049079 -0.154568,-0.268674 -0.196318,-0.294477c-0.093355,-0.057696 -0.071598,-0.181273 -0.098158,-0.245398c-0.018782,-0.045343 0,-0.196318 0,-0.392635c0,-0.147239 0,-0.392636 0,-0.441716c0,-0.098159 -0.034704,-0.161613 0,-0.196318c0.034704,-0.034703 0.349295,0.145651 0.441715,0.490795c0.052343,0.195473 0.146595,0.527953 0.196318,0.834351c0.047171,0.290675 0.120676,0.622988 0.147238,0.687113c0.056347,0.13603 -0.022552,0.198944 0,0.294477c0.050428,0.213618 0.098158,0.294477 0.147238,0.490795c0.049078,0.196318 0.04908,0.441715 0.09816,0.736192c0.04908,0.294477 0.135927,0.630254 0.245398,0.638033c0.154812,0.011002 0.269381,-0.280899 0.343555,-0.88343c0.047974,-0.389693 0,-0.687113 0,-0.834351c0,-0.04908 0,-0.09816 0,0.098159c0,0.343556 0,0.736192 0,1.128828c0,0.490794 0,0.93251 0,1.226987c0,0.343556 0,0.638033 0,0.93251c0,0.196318 0,0.588954 0,0.88343c0,0.294477 0,0.588954 0,0.932509c0,0.19632 0,0.490795 0,0.687113c0,0.14724 0,0.245398 0,0.441715c0,0.09816 0.047731,0.277176 0.09816,0.490795c0.045105,0.191067 -0.098158,0.441715 0,0.441715c0.245398,0 0,-0.539873 0,-1.521463c0,-1.815941 0.098074,-2.842296 0.147238,-3.680962c0.034466,-0.587944 0,-0.834351 0,-1.276066c0,-0.490795 0,-0.93251 0,-1.226988c0,-0.147238 0,-0.343556 0,-0.490794c0,-0.245398 0,-0.343556 0,-0.441715c0,-0.04908 -0.026709,0.091628 -0.098158,0.441715c-0.079126,0.387699 -0.254812,1.175901 -0.490795,2.306736c-0.153368,0.73494 -0.23115,1.47474 -0.343557,2.110417c-0.087154,0.492868 -0.126341,1.025866 -0.196318,1.521464c-0.082626,0.585191 -0.184669,1.425778 -0.294476,1.9141c-0.044395,0.19743 -0.04908,0.441715 -0.04908,0.785271c0,0.19632 0,0.392637 0,0.539875c0,0.196318 0,0.294477 0,0.392635c0,0.196318 0,0.294477 0,0.441715c0,0.04908 -0.01017,0.213898 0.098158,0.19632c0.137026,-0.022236 0.137356,-0.443903 0.19632,-0.687113c0.168371,-0.69449 0.215542,-0.990782 0.294476,-1.325148c0.075644,-0.320427 0.105492,-0.464991 0.14724,-0.490793c0.093353,-0.057695 0.206602,0.389862 0.294476,0.736191c0.111282,0.438593 0.14724,0.736193 0.196318,0.93251c0.04908,0.196318 0.04908,0.392635 0.09816,0.588955c0.04908,0.196318 0.094114,0.264385 0.147238,0.392635c0.093908,0.226719 0,0.539873 0,0.834351c0,0.343557 0,0.588955 0,0.736193c0,0.196318 0,0.343555 0,0.588953c0,0.343557 0,0.588955 0,0.88343c0,0.19632 0,0.294477 0,0.441717c0,0.147238 0.071598,0.181271 0.09816,0.245396c0.018782,0.045343 0,0.14724 0,0.245398c0,0.196318 0.02422,0.239437 0.04908,0.392637c0.015722,0.096889 0,0.196318 0,0.343555c0,0.09816 0,0.196318 0,0.294477c0,0.098158 0,0.147238 0,0.245398c0,0.04908 0,0.098158 0,0.147238c0,0.04908 0.069408,0.126909 0,0.196318c-0.034704,0.034704 -0.093563,-0.005075 -0.14724,-0.04908c-0.136848,-0.112188 -0.411728,-0.130352 -0.539873,-0.294476c-0.176119,-0.225569 -0.220182,-0.285828 -0.245398,-0.392635c-0.011276,-0.047768 0,-0.09816 -0.04908,-0.19632c-0.04908,-0.098158 -0.092154,-0.150478 -0.147238,-0.245398c-0.08882,-0.153053 -0.245398,-0.294476 -0.294477,-0.343555c-0.04908,-0.04908 -0.157627,-0.133205 -0.294477,-0.245398c-0.107353,-0.088009 -0.301947,-0.158754 -0.392635,-0.196318c-0.064125,-0.026562 -0.093561,-0.054155 -0.147238,-0.09816c-0.136848,-0.11219 -0.225471,-0.221495 -0.343557,-0.294476c-0.132023,-0.081594 -0.245396,-0.098162 -0.343555,-0.19632c-0.04908,-0.049078 -0.270927,-0.261282 -0.343557,-0.343555c-0.117111,-0.132662 -0.181273,-0.218836 -0.245398,-0.245398c-0.090687,-0.037563 -0.147238,-0.098158 -0.196318,-0.147238c-0.098158,-0.09816 -0.182287,-0.206707 -0.294477,-0.343557c-0.088009,-0.107353 -0.245398,-0.196318 -0.343555,-0.294476c-0.09816,-0.09816 -0.239584,-0.205658 -0.392635,-0.294477c-0.189838,-0.110168 -0.450844,-0.230309 -0.539875,-0.294477c-0.112616,-0.081167 -0.191721,-0.201393 -0.245398,-0.245398c-0.136848,-0.112188 -0.255833,-0.131102 -0.490795,-0.294477c-0.258018,-0.179407 -0.399115,-0.282467 -0.588953,-0.392635c-0.153051,-0.08882 -0.196318,-0.098158 -0.245398,-0.147238c-0.04908,-0.04908 -0.113411,-0.075333 -0.196318,-0.147238c-0.11725,-0.10169 -0.42668,-0.134007 -0.736193,-0.343557c-0.057476,-0.038914 -0.14855,-0.135962 -0.196318,-0.147238c-0.10681,-0.025215 -0.152042,-0.089542 -0.245398,-0.14724c-0.208747,-0.129013 -0.235331,-0.207125 -0.392636,-0.343555c-0.185387,-0.160786 -0.28002,-0.213308 -0.392635,-0.294477c-0.178059,-0.128338 -0.284781,-0.217562 -0.588954,-0.343555c-0.143389,-0.059393 -0.35198,-0.237587 -0.539874,-0.294477c-0.169366,-0.051281 0.002627,-0.044962 0.539874,-0.09816c0.498078,-0.049318 0.734744,-0.156904 1.030669,-0.196318c0.488926,-0.065119 1.138967,-0.207911 2.110417,-0.490795c0.298027,-0.086784 0.539875,-0.245396 0.588955,-0.294476c0.04908,-0.04908 0.249689,-0.137125 0.490793,-0.245398c0.300343,-0.134874 0.388628,-0.250902 0.588955,-0.392637c0.288916,-0.204414 0.874247,-0.504362 1.521463,-0.932509c0.919868,-0.608511 1.281876,-0.929712 1.374226,-1.128828c0.157265,-0.339084 0.435711,-0.88667 0.490795,-0.981589c0.177641,-0.306107 0.366074,-0.415765 0.441715,-0.736193c0.022552,-0.095533 0.027048,-0.305006 0.09816,-0.539874c0.10256,-0.338731 0.325331,-0.576524 0.196318,-0.785272c-0.230787,-0.37342 -0.834352,-0.245398 -1.03067,-0.245398c-0.490795,0 -0.609177,-0.050623 -0.785271,0.04908c-0.483198,0.273582 -0.747219,0.977629 -0.88343,1.374225c-0.267241,0.77811 -0.450924,1.544629 -0.294477,2.061338c0.10256,0.338732 0.393375,0.364431 0.687113,0.343556c0.34617,-0.024601 0.807734,-0.366096 1.276066,-0.785272c0.517185,-0.462902 0.662453,-0.879788 0.687113,-1.128828c0.033854,-0.341885 -0.225428,-0.710452 -0.638033,-0.785272c-0.531212,-0.096328 -1.497665,-0.249536 -2.208576,0.098159c-0.685862,0.335443 -1.005848,1.315484 -1.079748,2.159497c-0.047091,0.537816 0.147238,0.539874 0.392635,0.539874c0.294476,0 0.845728,-0.217321 1.177908,-0.539874c0.253908,-0.246551 0.294476,-0.490794 0.294476,-0.588954c0,-0.049079 -0.00919,-0.177092 -0.343555,-0.098159c-0.534046,0.126071 -1.161201,0.898119 -1.521463,1.865021c-0.320126,0.859179 -0.415216,1.554262 0,1.815941c0.423437,0.266859 1.370173,0.229301 2.110416,-0.09816c0.485493,-0.214767 0.73605,-0.730564 0.785273,-1.374226c0.018711,-0.244682 -0.142714,-0.466069 -0.343557,-0.490794c-0.292269,-0.03598 -0.68552,-0.073945 -1.177906,0.294477c-0.833611,0.62374 -0.834352,1.030669 -0.834352,1.276067c0,0.098158 0.109941,0.110909 0.588955,-0.343557c0.604233,-0.573267 1.148762,-0.864744 1.374224,-1.963179c0.05921,-0.288464 0.130545,-0.78661 0.09816,-1.177908c-0.024624,-0.297522 -0.179018,-0.538526 -0.392635,-0.588954c-0.238832,-0.056381 -0.539875,0.245398 -0.687113,0.687113c-0.196318,0.588954 -0.313055,1.234864 -0.245398,1.521464c0.025215,0.10681 0.158747,0.232671 0.834351,0.098159c0.152216,-0.030306 0.784021,-0.491801 0.98159,-0.736193c0.206982,-0.256035 0.29318,-0.606886 0.098158,-0.785272c-0.378092,-0.345837 -1.338882,-0.527868 -2.355814,0c-0.924059,0.47966 -1.201591,1.811051 -1.423306,2.944769c-0.219906,1.124472 -0.427666,2.008284 0.147238,2.552134c0.398624,0.377092 1.128828,0.392635 1.717783,0.392635c0.196318,0 0.582354,-0.129936 0.736193,-0.638033c0.128002,-0.422762 0.195814,-1.160036 -0.14724,-1.717781c-0.401649,-0.653011 -1.581667,-1.202547 -3.337404,-0.98159c-0.970249,0.122105 -1.607991,0.797522 -1.865021,1.521463c-0.151394,0.426413 -0.544294,1.266169 -0.294477,2.012259c0.143671,0.429077 0.687112,0.490795 1.030669,0.490795c0.588953,0 1.224743,-0.250851 1.815941,-0.93251c0.160784,-0.185387 0.294477,-0.490795 0.294477,-0.687113c0,-0.245398 -0.194551,-0.451977 -0.736193,-0.539873c-0.342564,-0.05559 -0.649521,-0.024828 -0.785273,0.392635c-0.184643,0.56781 -0.218975,1.072248 -0.098158,1.226988c0.124535,0.1595 0.550508,-0.078192 0.93251,-0.294477c0.556856,-0.315287 1.0784,-0.817049 1.128828,-1.03067c0.067657,-0.286598 -0.142925,-0.490709 -0.98159,-0.539873c-0.930912,-0.054571 -1.50083,0.093706 -1.717781,0.490795c-0.245678,0.449667 -0.331578,0.992159 -0.14724,1.226986c0.230799,0.294012 0.890461,0.3165 1.914101,0.196318c2.104506,-0.247082 2.918207,-0.966543 2.944769,-1.030668c0.037563,-0.090689 0.009052,-0.294107 -0.392635,-0.343557c-0.584541,-0.07196 -1.390955,-0.005919 -2.061338,0.490795c-0.446152,0.330572 -0.587046,0.739996 -0.539875,1.03067c0.049723,0.306396 0.441715,0.392635 0.736193,0.392635c0.343555,0 0.360546,-0.034624 0.441715,-0.147238c0.128338,-0.178059 0.220774,-0.585911 0.245398,-0.88343c0.020241,-0.244562 -0.087866,-0.637554 -0.441715,-0.687113c-0.340237,-0.047651 -0.786623,-0.033413 -1.177908,0.539873c-0.483202,0.707956 -0.5432,1.528587 -0.490795,1.717783c0.076391,0.275795 0.58754,0.368078 1.226988,0.392635c0.931824,0.035788 1.455151,-0.107767 1.570543,-0.294477c0.154816,-0.250498 -0.196318,-0.687113 -0.588955,-0.88343c-0.196318,-0.098158 -0.739378,-0.306585 -1.128828,-0.098158c-0.312038,0.166998 -0.245398,0.438227 -0.245398,0.785271c0,0.694088 0.578699,1.054892 1.374226,1.128828c1.221724,0.113546 2.517954,-0.297615 2.355816,-1.030668c-0.197159,-0.891388 -0.686094,-0.789976 -1.128828,-0.88343c-0.244862,-0.051687 -0.906225,0.068386 -1.079748,0.588953c-0.173523,0.520567 -0.167568,0.96126 -0.09816,1.030668c0.104113,0.104113 0.403288,-0.081091 0.88343,-0.392635c0.502565,-0.326094 1.002077,-0.688759 1.128828,-1.177908c0.061556,-0.237553 0.101948,-0.61042 -0.196318,-0.93251c-0.194445,-0.209976 -0.464884,-0.251324 -0.687113,-0.147238c-0.347134,0.162588 -0.539675,0.680479 -0.588953,1.226988c-0.052891,0.586573 0.089106,1.030298 0.490795,1.079748c0.389694,0.047974 0.886744,0.036213 1.619621,-0.04908c0.296537,-0.034512 0.482708,0.011105 0.588955,-0.245398c0.056345,-0.13603 0,-0.245398 0,-0.490795c0,-0.098158 0,-0.196318 -0.04908,-0.196318c-0.245398,0 -0.516611,-0.043509 -1.325146,0.687113c-0.43849,0.396235 -0.594006,0.814592 -0.490795,0.98159c0.17309,0.280064 0.687113,0.294477 0.98159,0.294477c0.196318,0 0.343555,0 0.490795,0c0.098158,0 0.420877,-0.171007 0.638033,-0.441715c0.400415,-0.499163 0.37826,-0.799648 0.343555,-0.834352c-0.034704,-0.034704 -0.30942,-0.075129 -0.490795,0c-0.448877,0.185932 -0.515272,0.635418 -0.539873,0.98159c-0.020876,0.293737 -0.023792,0.546028 0,0.588953c0.224455,0.404972 0.638033,0.392637 1.030668,0.392637c0.245398,0 0.30195,0.037565 0.392637,0c0.192377,-0.079685 0.147238,-0.294477 0.147238,-0.343557c0,-0.098158 0.007965,-0.196318 -0.147238,-0.196318c-0.310408,0 -0.582352,0.258337 -0.785273,0.539875c-0.256676,0.356119 -0.245398,0.588953 -0.245398,0.687113c0,0.147238 0,0.343555 0,0.736191c0,0.588955 0.02442,0.732552 0.04908,0.98159c0.004837,0.048841 0.034704,0.112534 0,0.147238c-0.104113,0.104113 -0.252869,0.037563 -0.343557,0c-0.192375,-0.079685 -0.256428,-0.445017 -0.490793,-0.736191c-0.264727,-0.328896 -0.464235,-0.279432 -0.490795,-0.343557c-0.018782,-0.045343 -0.04908,-0.04908 -0.04908,-0.09816l0,-0.049078l0,-0.04908" id="svg_11" stroke-width="1.5" stroke="#000" fill="none"/>
  <path d="m15.779143,17.444778c-0.196318,0.196318 -0.857597,0.813187 -1.570543,1.619621c-0.507785,0.574371 -0.81012,1.000984 -1.325146,1.619623c-0.422467,0.507458 -0.917089,0.908415 -1.472384,1.619623c-0.176119,0.225569 -0.415816,0.513977 -0.638033,0.736193c-0.222218,0.222218 -0.527944,0.646164 -0.93251,1.226988c-0.381543,0.54777 -0.504963,0.704153 -0.638034,0.93251c-0.158225,0.271523 -0.269262,0.285826 -0.294477,0.392635c-0.022552,0.095531 -0.005723,-0.003685 0.343556,-0.539875c0.289762,-0.444822 0.658155,-0.922705 1.128828,-1.914099c0.461644,-0.972378 0.566366,-2.136492 0.93251,-2.061338c0.048076,0.009869 -0.088984,0.395773 -0.294477,0.981588c-0.32895,0.937763 -0.976878,1.808998 -1.128828,2.404896c-0.012127,0.047556 -0.041977,-0.198893 0,-0.539875c0.024725,-0.200844 0.098159,-0.441715 0.196319,-0.687113l0.147238,-0.147238" id="svg_12" stroke-width="1.5" stroke="#000" fill="none"/>
  <path d="m12.490818,18.868082c-0.049079,-0.098158 -0.0364,-0.650591 0.09816,-0.981588c0.272902,-0.671301 1.095176,-1.803795 1.86502,-2.797531c0.601148,-0.775977 0.821171,-1.181682 0.88343,-1.374226c0.081317,-0.251481 0.186805,-0.44321 0.245398,-0.785272c0.042252,-0.246665 0.098159,-0.490795 0.098159,-0.638033c0,-0.09816 0,-0.392636 0,-0.490795l0,-0.098159" id="svg_13" stroke-width="1.5" stroke="#000" fill="none"/>
  <path d="m22.601192,20.09507c0.04908,0.04908 -0.007809,0.106583 0.04908,0.294477c0.051279,0.169365 0.400869,0.714947 0.539873,1.177906c0.08585,0.285929 0.10541,0.537098 0.196318,0.785273c0.053383,0.145733 0.053043,0.440956 0.09816,0.687113c0.053822,0.293648 0.032763,0.589293 0.04908,0.98159c0.024561,0.590485 0.095957,0.812223 0.147238,0.981588c0.042667,0.140923 0,0.294477 0,0.441715c0,0.09816 -0.018782,0.249134 0,0.294477c0.053123,0.128252 0.145039,0.22327 0.196318,0.392635c0.028444,0.093948 0.073299,0.239437 0.09816,0.392637c0.023584,0.145336 0.020636,0.298687 0.04908,0.392635c0.051279,0.169365 0.063454,0.308851 0.098158,0.343555c0.034704,0.034704 0.059193,0.044788 -0.04908,-0.196318c-0.089914,-0.200228 -0.147238,-0.294476 -0.196318,-0.441715l-0.098158,-0.196318l-0.04908,-0.294477l-0.14724,-0.441715" id="svg_14" fill-opacity="null" stroke-opacity="null" stroke-width="1.5" stroke="#000" fill="none"/>
  <path d="m19.656424,12.095114c-0.04908,-0.343556 -0.088648,-0.688607 -0.14724,-1.030669c-0.084503,-0.493328 -0.090376,-0.849242 -0.245398,-1.325146c-0.217646,-0.668156 -0.766754,-1.434837 -1.766861,-1.766861c-0.895977,-0.297454 -1.619622,-0.294477 -2.110417,-0.294477c-0.343556,0 -0.639227,-0.024181 -0.88343,0c-0.24904,0.02466 -0.617495,0.119304 -1.079749,0.490795c-0.191281,0.153724 -0.191635,0.226274 -0.098159,0.196318c0.402057,-0.128845 0.521312,-0.443486 0.539874,-0.539874c0.049982,-0.259532 0.09816,-0.441716 0.09816,-0.638033c0,-0.196318 -0.443211,-0.383123 -0.785273,-0.441716c-0.493329,-0.084504 -0.785889,-0.115555 -1.030669,-0.098159c-0.346171,0.024601 -0.807473,0.414932 -1.226987,0.785272c-0.520343,0.45935 -0.663658,0.600397 -0.93251,1.226987c-0.624698,1.455926 -0.697542,2.894526 -0.736192,3.288326c-0.067285,0.685569 -0.147239,1.276066 -0.147239,1.766861c0,0.834352 -0.02126,1.518183 -0.147238,2.404894c-0.11817,0.831755 -0.232249,1.572681 -0.294477,1.914101c-0.162271,0.890314 -0.191586,1.326027 -0.294477,1.865021c-0.09385,0.491636 -0.128135,0.836893 -0.196319,1.276066c-0.076788,0.494589 -0.122377,0.730232 -0.147238,0.88343c-0.04717,0.290674 -0.098159,0.638035 -0.147239,1.03067c-0.098159,0.785271 -0.241662,1.159126 -0.196318,1.177908c0.897757,0.371862 4.147801,-5.24523 5.398743,-8.196274c0.163659,-0.386081 0.314869,-0.797261 0.490795,-1.177908c0.211994,-0.458684 0.582591,-1.033937 0.736192,-1.325147c0.235744,-0.446942 0.652344,-1.12024 1.030669,-1.766861c0.255177,-0.436139 0.525143,-0.989745 0.883431,-1.619623c0.141497,-0.248753 0.308422,-0.42852 0.539873,-0.687113c0.209589,-0.234166 0.338087,-0.353083 0.588955,-0.490795c0.384811,-0.211241 0.751097,-0.419341 1.128828,-0.687113c0.512754,-0.363489 0.904366,-0.718935 1.177908,-0.93251c0.451138,-0.352238 0.834351,-0.441715 1.079748,-0.539874c0.245398,-0.098159 0.328955,-0.223974 0.588953,-0.343556c0.282009,-0.129705 0.616343,-0.15105 0.88343,-0.343556c0.281538,-0.202921 0.490795,-0.245398 0.539875,-0.245398c0.09816,0 0.200054,-0.116941 0.245398,-0.098159c0.064125,0.026562 0.196318,0.294477 0.196318,0.392636c0,0.196318 0,0.687113 0,1.177907c0,0.245398 0.053019,0.279226 0.196318,0.245398c0.213617,-0.050428 0.318832,-0.289951 0.343557,-0.490795c0.03598,-0.292271 0.014994,-0.396692 -0.09816,-0.785272c-0.086786,-0.298027 -0.292276,-0.566827 -0.343555,-0.736193c-0.028444,-0.093947 -0.264988,-0.24227 -0.785273,-0.098159c-0.275797,0.076391 -0.616686,0.482499 -0.736193,0.93251c-0.064232,0.241873 -0.227791,0.739542 0,0.93251c0.187243,0.158619 0.498159,-0.038458 0.785273,-0.245397c0.453964,-0.327199 0.666485,-0.596653 0.785273,-0.883431c0.083994,-0.202782 0.188026,-0.504843 0.098158,-0.785272c-0.128845,-0.402057 -0.736193,-0.392636 -1.079748,-0.392636c-1.128828,0 -1.779505,-0.049388 -2.061338,0.049079c-0.477028,0.166665 -1.15398,0.614938 -1.963179,1.521464c-0.49025,0.549214 -0.785212,1.272396 -0.834352,2.257656c-0.041563,0.833316 0.144625,1.398704 0.490795,1.423306c0.391647,0.027834 0.888666,-0.086432 1.668703,-0.441715c0.939024,-0.427695 2.094479,-0.907742 2.453974,-1.423306c0.266314,-0.381927 0.267061,-0.902161 0.147238,-1.276066c-0.128845,-0.402057 -0.437061,-0.465703 -0.88343,-0.539875c-1.315266,-0.218554 -2.552399,-0.172784 -3.779119,-0.147238c-1.178675,0.024545 -2.39835,0.308381 -3.141088,0.736192c-0.791086,0.455659 -1.529584,1.021378 -1.815941,1.668702c-0.245597,0.555183 -0.401968,1.221861 -0.098159,1.619623c0.333073,0.436076 2.064436,0.45781 2.748451,0.392636c1.293589,-0.123255 2.733023,-0.766329 3.975437,-1.423306c0.758963,-0.401332 0.834352,-0.638033 0.834352,-0.687113l0,-0.049079" id="svg_15" fill-opacity="null" stroke-opacity="null" stroke-width="1.5" stroke="#000" fill="none"/>
  <path d="m22.930395,6.550762c-0.137236,0 -0.227886,0.032571 -0.274471,0.274471c-0.034603,0.179679 0,0.457452 0,0.686178c0,0.182981 0,0.228726 0.045746,0.228726c0.18298,0 0.471666,-0.049416 0.503197,-0.182981c0.047003,-0.199106 0.09149,-0.548942 0.09149,-1.052139c0,-0.503197 -0.149223,-0.922138 -0.411707,-1.052139c-0.169018,-0.08371 -0.503197,-0.09149 -0.731922,-0.09149c-0.274471,0 -0.696749,0.31145 -0.960649,0.640433c-1.001839,1.24891 -1.361404,2.373964 -1.463846,3.247908c-0.069439,0.592388 0.181425,0.846262 0.686178,0.869159c0.50268,0.022802 1.602345,-0.148316 2.607475,-0.594687c0.975121,-0.433043 1.370317,-0.794397 1.463846,-1.23512c0.113956,-0.536984 0.042854,-0.704885 -0.411707,-0.960649c-0.895912,-0.504095 -2.096571,-0.624398 -3.522379,-0.731923c-2.053211,-0.15484 -3.222904,-0.059069 -4.208557,0.320216c-1.031731,0.397016 -2.015852,1.094293 -2.927691,1.875552c-1.009804,0.865195 -2.215526,2.415975 -2.424495,2.927691c-0.404852,0.991389 -0.617551,2.377742 -0.640433,3.156418c-0.0215,0.731607 -0.113252,1.096013 0.182981,1.692572c0.305181,0.614576 0.81723,0.823227 1.32661,0.869158c0.637846,0.057514 1.42079,0.158379 2.104279,-0.137236c1.352065,-0.58478 1.965139,-1.55153 2.515985,-2.653219c0.220339,-0.440677 0.690453,-1.31697 0.86916,-2.37875c0.191174,-1.135859 0.051397,-1.764963 -0.503197,-2.104279c-0.681475,-0.416945 -1.645685,-0.480311 -2.333005,-0.503197c-0.685798,-0.022835 -1.688739,-0.087602 -2.333005,0.274471c-0.79758,0.448234 -2.003485,1.103155 -2.333004,4.254301c-0.047814,0.457241 0.228726,0.594687 0.548943,0.594687l0.365961,-0.09149l0.091491,-0.182981l0.045745,-0.045746" id="svg_16" fill-opacity="null" stroke-opacity="null" stroke-width="1.5" stroke="#000" fill="none"/>
 </g>
</svg>